<svg width="145" height="50" viewBox="0 0 145 50" fill="none" xmlns="http://www.w3.org/2000/svg">
<path d="M14.9099 6.93997L14.6999 2.61997C14.6399 1.11997 14.2799 0.99997 13.5899 0.99997H0.899902V1.59997L2.7599 1.74997C3.2099 1.77997 3.5999 1.83997 3.5999 2.34997V20.65C3.5999 21.16 3.2099 21.22 2.7599 21.25L0.899902 21.4V22H13.4699C15.3899 22 15.1799 21.31 15.2099 20.44L15.4499 15.34H14.7899C14.6099 18.1 12.9299 21.22 8.5799 21.22H6.8399V11.35H7.5299C8.2499 11.35 9.0899 11.59 9.8099 12.64C10.3799 13.48 10.7699 14.74 10.7099 15.76H11.3699C11.3699 14.77 11.3399 14.38 11.2499 13.48C11.1599 12.64 11.1299 12.07 11.1299 11.05C11.1299 7.71997 11.4599 7.47997 11.3399 6.09997H10.6799C10.6799 6.72997 10.5899 7.59997 10.3199 8.28997C9.8399 9.42997 8.6999 10.57 7.4099 10.57H6.8399V1.77997H7.9799C9.7199 1.77997 10.7699 2.04997 11.4599 2.37997C13.0799 3.15997 14.1299 4.92997 14.2499 6.93997H14.9099Z" fill="#313234"/>
<path d="M19.0162 14.47L19.4362 20.29C21.1162 21.61 23.5762 22.54 25.6462 22.54C28.7962 22.54 31.9462 20.32 31.9462 16.66C31.9462 14.71 30.9862 12.28 26.6962 9.39997L24.3262 7.80997C22.9762 6.90997 21.8962 5.34997 21.8962 3.78997C21.8962 2.43997 22.6462 1.23997 24.4762 1.23997C27.1162 1.23997 29.6962 3.42997 30.5062 6.60997H31.1662L30.5662 0.24997H29.8162V0.30997C29.8162 1.05997 29.3362 1.17997 29.0662 1.17997C28.6762 1.17997 28.1362 0.93997 27.3262 0.759971C26.6062 0.609969 25.4362 0.459969 24.7162 0.459969C21.2362 0.459969 19.8262 3.30997 19.8262 5.43997C19.8262 7.89997 21.5362 10.15 22.8862 11.11L25.1062 12.7C27.3262 14.29 29.4262 15.64 29.4262 18.28C29.4262 20.08 28.2562 21.76 25.9462 21.76C24.5062 21.76 22.9162 21.16 21.4462 19C20.7262 17.95 19.8862 16.21 19.6762 14.47H19.0162Z" fill="#313234"/>
<path d="M49.2798 6.93997L49.0698 2.61997C49.0098 1.11997 48.6498 0.99997 47.9598 0.99997H35.2698V1.59997L37.1298 1.74997C37.5798 1.77997 37.9698 1.83997 37.9698 2.34997V20.65C37.9698 21.16 37.5798 21.22 37.1298 21.25L35.2698 21.4V22H47.8398C49.7598 22 49.5498 21.31 49.5798 20.44L49.8198 15.34H49.1598C48.9798 18.1 47.2998 21.22 42.9498 21.22H41.2098V11.35H41.8998C42.6198 11.35 43.4598 11.59 44.1798 12.64C44.7498 13.48 45.1398 14.74 45.0798 15.76H45.7398C45.7398 14.77 45.7098 14.38 45.6198 13.48C45.5298 12.64 45.4998 12.07 45.4998 11.05C45.4998 7.71997 45.8298 7.47997 45.7098 6.09997H45.0498C45.0498 6.72997 44.9598 7.59997 44.6898 8.28997C44.2098 9.42997 43.0698 10.57 41.7798 10.57H41.2098V1.77997H42.3498C44.0898 1.77997 45.1398 2.04997 45.8298 2.37997C47.4498 3.15997 48.4998 4.92997 48.6198 6.93997H49.2798Z" fill="#313234"/>
<path d="M57.5561 3.90997L69.2261 22.75H70.5161L70.8461 3.81997C70.8761 2.01997 71.8961 1.71997 72.7961 1.65997L73.7861 1.59997V0.99997H66.7061V1.59997L67.6961 1.65997C68.5661 1.71997 69.6161 2.01997 69.6461 3.81997L69.8261 17.47H69.4061L61.2461 3.87997C60.3461 2.40997 59.2361 0.909971 56.3261 0.909971C56.0261 0.909971 55.4861 0.93997 53.4761 1.05997L53.0261 1.08997V1.68997L53.6261 1.65997H53.8961C54.5861 1.65997 56.1161 1.83997 56.5661 3.33997L56.3561 19.18C56.3561 19.72 56.3561 21.22 54.4061 21.34L53.4161 21.4V22H60.4961V21.4L59.5061 21.37C57.6161 21.31 57.5561 19.69 57.5561 19.18L57.3761 3.90997H57.5561Z" fill="#313234"/>
<path d="M76.7087 7.74997C77.6387 1.95997 80.4287 1.74997 81.6287 1.74997H82.0787V20.65C82.0787 21.13 81.6887 21.22 81.2387 21.25L79.0787 21.4V22H88.3187V21.4L86.1587 21.25C85.7087 21.22 85.3187 21.13 85.3187 20.65V1.74997H85.7687C86.9687 1.74997 89.7587 1.95997 90.6887 7.74997H91.3487L90.9287 1.95997C90.8987 1.35997 90.4787 0.99997 89.9087 0.99997H77.4887C76.9187 0.99997 76.4987 1.35997 76.4687 1.95997L76.0487 7.74997H76.7087Z" fill="#313234"/>
<path d="M91.7987 21.34V22H97.5587V21.34L96.2687 21.19C95.9987 21.16 95.4287 21.04 95.4287 20.32C95.4287 20.2 95.4587 19.9 95.6387 19.27L97.2587 13.9H102.869L104.309 20.14C104.459 20.8 104.249 21.1 103.919 21.13L101.909 21.34V22H109.859V21.34L108.839 21.25C108.299 21.19 107.819 20.47 107.669 19.9L102.329 0.219971L100.349 1.17997L94.1987 19.21C93.5987 20.95 92.7887 21.34 92.1287 21.34H91.7987ZM97.4687 13.12L100.139 4.47997H100.499L102.659 13.12H97.4687Z" fill="#313234"/>
<path d="M120.916 1.59997V0.99997H112.186V1.59997L114.046 1.77997C114.706 1.83997 114.886 1.80997 114.886 2.34997V20.35C114.886 20.8 114.856 21.16 114.226 21.22L112.096 21.43V22H121.006V21.43L118.786 21.22C118.156 21.16 118.126 20.98 118.126 20.44V2.43997C118.126 2.01997 118.126 1.86997 118.666 1.80997L120.916 1.59997Z" fill="#313234"/>
<path d="M16.6499 46.48V41.59C16.6499 41.08 17.0399 41.05 17.4899 40.99L18.8999 40.84V40.24H10.7099V40.84L12.5699 40.99C13.0199 41.02 13.4099 41.08 13.4099 41.59V46.54C13.3199 47.26 12.9899 47.62 12.4199 48.04C11.9399 48.37 11.2199 48.76 10.2299 48.76C9.0299 48.76 4.9499 48.07 4.9499 38.2C4.9499 34.33 5.9699 28.24 10.0199 28.24C12.5999 28.24 14.0699 30.49 14.5799 31.54C15.0299 32.44 15.2999 33.52 15.3599 34.57H16.0199L15.7199 27.25H14.6699C14.6999 27.34 14.6999 27.4 14.6999 27.49C14.6999 27.88 14.4599 28.27 13.9799 28.27C13.6199 28.27 13.2599 28.15 12.5999 27.94C11.9099 27.73 10.9199 27.46 9.7799 27.46C6.3299 27.46 3.8099 29.98 2.6099 32.5C1.7999 34.21 1.3499 36.61 1.3499 38.8C1.3499 41.32 1.8899 43.39 2.8199 45.07C4.5299 48.22 7.2599 49.54 9.9299 49.54C11.3399 49.54 12.8699 49.15 14.3399 48.37C15.4199 47.8 16.1099 47.23 16.6499 46.48Z" fill="#313234"/>
<path d="M30.9416 27.46C27.0716 27.46 24.7916 29.68 23.5616 32.17C22.6016 34.15 22.2116 36.55 22.2116 38.5C22.2116 40.45 22.6016 42.85 23.5616 44.83C24.7916 47.32 27.0716 49.54 30.9416 49.54C34.8116 49.54 37.0916 47.32 38.3216 44.83C39.2816 42.85 39.6716 40.45 39.6716 38.5C39.6716 36.55 39.2816 34.15 38.3216 32.17C37.0916 29.68 34.8116 27.46 30.9416 27.46ZM30.9416 28.24C34.0316 28.24 36.0716 31.9 36.0716 38.5C36.0716 45.1 34.0316 48.76 30.9416 48.76C27.8516 48.76 25.8116 45.1 25.8116 38.5C25.8116 31.9 27.8516 28.24 30.9416 28.24Z" fill="#313234"/>
<path d="M49.5079 29.35C49.5079 28.84 49.8979 28.78 50.3479 28.75L52.2079 28.6V28H43.5679V28.6L45.4279 28.75C45.8779 28.78 46.2679 28.84 46.2679 29.35V41.62C46.2679 44.98 47.7979 47.02 49.2379 48.13C50.6179 49.21 52.0879 49.54 53.4679 49.54C54.7879 49.54 56.6179 49.39 58.1479 47.77C59.8279 45.97 60.0679 43.27 60.0679 40.84L60.0979 30.82C60.0979 29.02 61.2079 28.72 62.0479 28.66L63.0379 28.6V28H55.9579V28.6L56.9479 28.66C57.8179 28.72 58.8679 29.02 58.8979 30.82L59.0179 42.01V42.4C59.0179 43.84 58.8379 45.55 57.8779 46.87C57.0379 48.04 55.6579 48.76 54.0379 48.76C52.6579 48.76 51.5479 48.13 50.8279 47.32C49.6879 46.03 49.5079 44.29 49.5079 42.16V29.35Z" fill="#313234"/>
<path d="M65.8874 28V28.6L67.7474 28.75C68.1974 28.78 68.5874 28.84 68.5874 29.35V47.65C68.5874 48.16 68.1974 48.22 67.7474 48.25L65.8874 48.4V49H74.5274V48.4L72.6674 48.25C72.2174 48.22 71.8274 48.16 71.8274 47.65V38.5L72.6674 38.53C73.7774 38.56 74.5274 39.55 75.0974 40.48C76.2374 42.37 77.3474 45.31 78.9974 47.5C79.6874 48.43 80.5574 49.27 82.5974 49.27C83.0474 49.27 83.8574 49.12 84.1274 49.09V48.49C84.0074 48.52 83.8874 48.52 83.7674 48.52C83.0174 48.52 82.6274 48.01 82.2674 47.44C81.6374 46.42 81.0974 45.28 80.4374 43.93C79.3274 41.68 78.9074 40.72 78.3074 40C77.8274 39.46 76.8974 38.65 75.3974 38.53V38.2C76.4774 38.14 77.9174 37.84 78.9974 37.09C79.9874 36.4 81.0674 35.11 81.0674 32.95C81.0674 31.96 80.8274 30.55 79.5074 29.41C77.9474 28.06 75.7574 28 74.8574 28H65.8874ZM71.8274 29.02C72.4574 28.78 72.8474 28.78 73.4774 28.78C74.5274 28.78 75.9674 28.81 76.9874 29.98C77.8274 30.94 77.8874 32.14 77.8874 33.01V33.61C77.8874 34.48 77.8574 35.71 76.8074 36.61C76.0574 37.27 74.1974 37.75 72.9074 37.75H72.7874L71.8274 37.72V29.02Z" fill="#313234"/>
<path d="M108.695 28.6V28H105.485C103.355 28 102.695 28.54 102.005 30.46L97.5953 43H97.2053L93.5153 30.52C92.7653 28 91.4453 27.91 90.0653 27.91C89.0753 27.91 88.2053 28 87.1853 28.03L86.3153 28.06V28.66H87.7253C89.1953 28.66 89.2253 29.32 89.2253 29.89V29.95L89.0153 46.18C88.9853 47.98 87.9353 48.28 87.0653 48.34L86.0753 48.4V49H93.1553V48.4L92.1653 48.34C91.2953 48.28 90.2453 47.98 90.2153 46.18L90.0053 30.7H90.4253L96.2153 49H96.9353L102.455 31.48H102.815V47.65C102.815 48.16 102.425 48.22 101.975 48.25L100.115 48.4V49H108.755V48.4L106.895 48.25C106.445 48.22 106.055 48.16 106.055 47.65V29.41C106.055 29.05 106.115 28.78 106.625 28.75L108.695 28.6Z" fill="#313234"/>
<path d="M125.927 33.94L125.717 29.62C125.657 28.12 125.297 28 124.607 28H111.917V28.6L113.777 28.75C114.227 28.78 114.617 28.84 114.617 29.35V47.65C114.617 48.16 114.227 48.22 113.777 48.25L111.917 48.4V49H124.487C126.407 49 126.197 48.31 126.227 47.44L126.467 42.34H125.807C125.627 45.1 123.947 48.22 119.597 48.22H117.857V38.35H118.547C119.267 38.35 120.107 38.59 120.827 39.64C121.397 40.48 121.787 41.74 121.727 42.76H122.387C122.387 41.77 122.357 41.38 122.267 40.48C122.177 39.64 122.147 39.07 122.147 38.05C122.147 34.72 122.477 34.48 122.357 33.1H121.697C121.697 33.73 121.607 34.6 121.337 35.29C120.857 36.43 119.717 37.57 118.427 37.57H117.857V28.78H118.997C120.737 28.78 121.787 29.05 122.477 29.38C124.097 30.16 125.147 31.93 125.267 33.94H125.927Z" fill="#313234"/>
<path d="M130.034 34.75C130.964 28.96 133.754 28.75 134.954 28.75H135.404V47.65C135.404 48.13 135.014 48.22 134.564 48.25L132.404 48.4V49H141.644V48.4L139.484 48.25C139.034 48.22 138.644 48.13 138.644 47.65V28.75H139.094C140.294 28.75 143.084 28.96 144.014 34.75H144.674L144.254 28.96C144.224 28.36 143.804 28 143.234 28H130.814C130.244 28 129.824 28.36 129.794 28.96L129.374 34.75H130.034Z" fill="#313234"/>
</svg>
